<svg width="100" height="101" viewBox="0 0 100 101" fill="none" xmlns="http://www.w3.org/2000/svg">
<g id="Image">
<g id="BG" filter="url(#filter0_d_632_853)">
<path fill-rule="evenodd" clip-rule="evenodd" d="M50 90.665C72.0914 90.665 90 72.7564 90 50.665C90 28.5736 72.0914 10.665 50 10.665C27.9086 10.665 10 28.5736 10 50.665C10 72.7564 27.9086 90.665 50 90.665Z" fill="#ECECEE"/>
</g>
<path id="Mask" fill-rule="evenodd" clip-rule="evenodd" d="M61.7813 61.465H38.2187C37.5455 61.465 37 60.9279 37 60.2651V45.557C37 44.8945 37.5455 44.357 38.2187 44.357H43.4238L45.3757 41.1436C45.5983 40.8545 45.947 40.665 46.3438 40.665H53.6562C53.9986 40.665 54.3065 40.8053 54.5283 41.0287L54.5291 41.0276L56.5988 44.357H61.7813C62.4545 44.357 63 44.8945 63 45.557V60.2651C63 60.9279 62.4545 61.465 61.7813 61.465ZM50 46.8183C46.4445 46.8183 43.5623 49.6565 43.5623 53.157C43.5623 56.6579 46.4445 59.4957 50 59.4957C53.5556 59.4957 56.4378 56.6579 56.4378 53.157C56.4378 49.6565 53.5556 46.8183 50 46.8183ZM46.2743 53.157C46.2743 55.1828 47.9425 56.8254 50 56.8254C52.0578 56.8254 53.7257 55.1828 53.7257 53.157C53.7257 51.1308 52.0578 49.4886 50 49.4886C47.9425 49.4886 46.2743 51.1308 46.2743 53.157Z" fill="#414141"/>
<mask id="mask0_632_853" style="mask-type:luminance" maskUnits="userSpaceOnUse" x="37" y="40" width="26" height="22">
<path id="Mask_2" fill-rule="evenodd" clip-rule="evenodd" d="M61.7813 61.465H38.2187C37.5455 61.465 37 60.9279 37 60.2651V45.557C37 44.8945 37.5455 44.357 38.2187 44.357H43.4238L45.3757 41.1436C45.5983 40.8545 45.947 40.665 46.3438 40.665H53.6562C53.9986 40.665 54.3065 40.8053 54.5283 41.0287L54.5291 41.0276L56.5988 44.357H61.7813C62.4545 44.357 63 44.8945 63 45.557V60.2651C63 60.9279 62.4545 61.465 61.7813 61.465ZM50 46.8183C46.4445 46.8183 43.5623 49.6565 43.5623 53.157C43.5623 56.6579 46.4445 59.4957 50 59.4957C53.5556 59.4957 56.4378 56.6579 56.4378 53.157C56.4378 49.6565 53.5556 46.8183 50 46.8183ZM46.2743 53.157C46.2743 55.1828 47.9425 56.8254 50 56.8254C52.0578 56.8254 53.7257 55.1828 53.7257 53.157C53.7257 51.1308 52.0578 49.4886 50 49.4886C47.9425 49.4886 46.2743 51.1308 46.2743 53.157Z" fill="white"/>
</mask>
<g mask="url(#mask0_632_853)">
</g>
</g>
<defs>
<filter id="filter0_d_632_853" x="0" y="0.665039" width="100" height="100" filterUnits="userSpaceOnUse" color-interpolation-filters="sRGB">
<feFlood flood-opacity="0" result="BackgroundImageFix"/>
<feColorMatrix in="SourceAlpha" type="matrix" values="0 0 0 0 0 0 0 0 0 0 0 0 0 0 0 0 0 0 127 0" result="hardAlpha"/>
<feOffset/>
<feGaussianBlur stdDeviation="5"/>
<feColorMatrix type="matrix" values="0 0 0 0 0 0 0 0 0 0 0 0 0 0 0 0 0 0 0.01 0"/>
<feBlend mode="normal" in2="BackgroundImageFix" result="effect1_dropShadow_632_853"/>
<feBlend mode="normal" in="SourceGraphic" in2="effect1_dropShadow_632_853" result="shape"/>
</filter>
</defs>
</svg>
